<svg width="50" height="50" viewBox="0 0 50 50" fill="none" xmlns="http://www.w3.org/2000/svg">
<path fill-rule="evenodd" clip-rule="evenodd" d="M25 0C38.8081 0 50 11.5408 50 25.7794C50 36.7206 43.3721 46.1031 34.0116 49.8201C34.0988 49.7902 34.157 49.7602 34.2151 49.7602C33.75 49.9101 33.2558 50 32.7616 50C30.1744 50 28.0814 47.8417 28.0814 45.1739C28.0814 43.2254 29.186 41.5468 30.7849 40.7674C30.9012 40.7374 31.0174 40.6775 31.1337 40.6175C31.1628 40.6175 31.1919 40.6175 31.2209 40.5875C36.7733 38.1295 40.6395 32.4041 40.6395 25.7794C40.6395 16.8765 33.6337 9.65228 25 9.65228C16.3663 9.65228 9.36047 16.8765 9.36047 25.7794C9.36047 32.4041 13.2267 38.1295 18.7791 40.5875C18.8081 40.6175 18.8372 40.6175 18.8372 40.6175C18.9826 40.6775 19.0988 40.7374 19.2151 40.7674C20.814 41.5468 21.9186 43.2254 21.9186 45.1739C21.9186 47.8417 19.8256 50 17.2384 50C16.7442 50 16.25 49.9101 15.7849 49.7602C15.843 49.7902 15.9012 49.7902 15.9884 49.8201C6.62791 46.1031 0 36.7506 0 25.7794C0 11.5408 11.1919 0 25 0ZM25 16.187C30.1453 16.187 34.3314 20.5036 34.3314 25.8094C34.3314 31.1151 30.1453 35.4017 25 35.4017C19.8547 35.4017 15.6977 31.1151 15.6977 25.8094C15.6977 20.5036 19.8547 16.187 25 16.187Z" fill="#009B4C"/>
</svg>
