<svg width="50" height="50" viewBox="0 0 50 50" fill="none" xmlns="http://www.w3.org/2000/svg">
<rect width="50" height="50" rx="25" fill="#E9F2FF"/>
<g filter="url(#filter0_i_212_568)">
<path fill-rule="evenodd" clip-rule="evenodd" d="M12.9495 14.985C12.9495 14.4451 13.1639 13.9274 13.5456 13.5457C13.9274 13.1639 14.4451 12.9495 14.985 12.9495H35.2758C35.5433 12.949 35.8083 13.0014 36.0556 13.1035C36.3029 13.2056 36.5276 13.3555 36.7169 13.5445C36.9061 13.7336 37.0563 13.9582 37.1586 14.2053C37.261 14.4525 37.3137 14.7174 37.3135 14.985V35.2758C37.3138 35.5434 37.2613 35.8084 37.1591 36.0557C37.0569 36.303 36.9069 36.5277 36.7177 36.7169C36.5286 36.9062 36.3039 37.0563 36.0567 37.1587C35.8095 37.261 35.5445 37.3137 35.2769 37.3135H14.985C14.7176 37.3135 14.4528 37.2608 14.2058 37.1585C13.9587 37.0561 13.7343 36.9061 13.5453 36.7169C13.3562 36.5278 13.2063 36.3033 13.1041 36.0562C13.0019 35.8091 12.9493 35.5443 12.9495 35.2769V14.985ZM22.5932 22.2388H25.8923V23.8956C26.3685 22.9432 27.5867 22.086 29.4173 22.086C32.9269 22.086 33.7586 23.9831 33.7586 27.4638V33.9114H30.207V28.2567C30.207 26.2744 29.7308 25.1559 28.5214 25.1559C26.8436 25.1559 26.1459 26.3619 26.1459 28.2567V33.9114H22.5932V22.2388ZM16.5022 33.7597H20.0549V22.086H16.5022V33.7586V33.7597ZM20.5632 18.2785C20.5699 18.5827 20.5158 18.8852 20.404 19.1682C20.2922 19.4512 20.1251 19.709 19.9123 19.9265C19.6995 20.144 19.4455 20.3168 19.165 20.4348C18.8846 20.5528 18.5834 20.6135 18.2791 20.6135C17.9748 20.6135 17.6736 20.5528 17.3932 20.4348C17.1127 20.3168 16.8587 20.144 16.6459 19.9265C16.4331 19.709 16.266 19.4512 16.1542 19.1682C16.0424 18.8852 15.9883 18.5827 15.995 18.2785C16.0081 17.6815 16.2545 17.1133 16.6815 16.6956C17.1084 16.278 17.6819 16.0442 18.2791 16.0442C18.8763 16.0442 19.4498 16.278 19.8767 16.6956C20.3037 17.1133 20.5501 17.6815 20.5632 18.2785Z" fill="#5B7DF5"/>
</g>
<defs>
<filter id="filter0_i_212_568" x="11.842" y="11.842" width="26.5789" height="30.5789" filterUnits="userSpaceOnUse" color-interpolation-filters="sRGB">
<feFlood flood-opacity="0" result="BackgroundImageFix"/>
<feBlend mode="normal" in="SourceGraphic" in2="BackgroundImageFix" result="shape"/>
<feColorMatrix in="SourceAlpha" type="matrix" values="0 0 0 0 0 0 0 0 0 0 0 0 0 0 0 0 0 0 127 0" result="hardAlpha"/>
<feOffset dy="4"/>
<feGaussianBlur stdDeviation="7.5"/>
<feComposite in2="hardAlpha" operator="arithmetic" k2="-1" k3="1"/>
<feColorMatrix type="matrix" values="0 0 0 0 0 0 0 0 0 0 0 0 0 0 0 0 0 0 0.2 0"/>
<feBlend mode="normal" in2="shape" result="effect1_innerShadow_212_568"/>
</filter>
</defs>
</svg>
