<svg width="50" height="50" viewBox="0 0 50 50" fill="none" xmlns="http://www.w3.org/2000/svg">
<rect width="50" height="50" rx="25" fill="#E9F2FF"/>
<g filter="url(#filter0_i_212_563)">
<path fill-rule="evenodd" clip-rule="evenodd" d="M19.846 12.7594C21.145 12.6996 21.5592 12.6863 24.8683 12.6863C28.1774 12.6863 28.5916 12.7007 29.8895 12.7594C31.1874 12.8181 32.0734 13.0252 32.8486 13.3253C33.6604 13.632 34.3968 14.1116 35.0059 14.7318C35.6261 15.3397 36.1045 16.0751 36.4102 16.888C36.7114 17.6632 36.9174 18.5492 36.9772 19.8449C37.037 21.1461 37.0503 21.5603 37.0503 24.8683C37.0503 28.1774 37.0359 28.5916 36.9772 29.8906C36.9185 31.1863 36.7114 32.0723 36.4102 32.8475C36.1045 33.6605 35.6253 34.3971 35.0059 35.006C34.3968 35.6261 33.6604 36.1045 32.8486 36.4102C32.0734 36.7114 31.1874 36.9174 29.8917 36.9772C28.5916 37.037 28.1774 37.0503 24.8683 37.0503C21.5592 37.0503 21.145 37.0359 19.846 36.9772C18.5503 36.9185 17.6643 36.7114 16.8891 36.4102C16.0761 36.1045 15.3395 35.6253 14.7306 35.006C14.1109 34.3976 13.6313 33.6614 13.3253 32.8486C13.0252 32.0734 12.8192 31.1874 12.7594 29.8917C12.6996 28.5905 12.6863 28.1763 12.6863 24.8683C12.6863 21.5592 12.7007 21.145 12.7594 19.8471C12.8181 18.5492 13.0252 17.6632 13.3253 16.888C13.6317 16.0752 14.1117 15.339 14.7318 14.7306C15.3398 14.111 16.0756 13.6314 16.888 13.3253C17.6632 13.0252 18.5492 12.8192 19.8449 12.7594H19.846ZM29.7909 14.9521C28.5063 14.8934 28.1209 14.8813 24.8683 14.8813C21.6157 14.8813 21.2303 14.8934 19.9457 14.9521C18.7574 15.0064 18.1128 15.2046 17.6831 15.3719C17.115 15.5934 16.7086 15.8558 16.2822 16.2822C15.878 16.6754 15.567 17.1541 15.3719 17.6831C15.2046 18.1128 15.0064 18.7574 14.9521 19.9457C14.8934 21.2303 14.8813 21.6157 14.8813 24.8683C14.8813 28.1209 14.8934 28.5063 14.9521 29.7909C15.0064 30.9792 15.2046 31.6238 15.3719 32.0535C15.5668 32.5817 15.878 33.0613 16.2822 33.4544C16.6753 33.8586 17.1549 34.1698 17.6831 34.3647C18.1128 34.532 18.7574 34.7302 19.9457 34.7845C21.2303 34.8432 21.6146 34.8553 24.8683 34.8553C28.122 34.8553 28.5063 34.8432 29.7909 34.7845C30.9792 34.7302 31.6238 34.532 32.0535 34.3647C32.6216 34.1432 33.028 33.8808 33.4544 33.4544C33.8586 33.0613 34.1698 32.5817 34.3647 32.0535C34.532 31.6238 34.7302 30.9792 34.7845 29.7909C34.8432 28.5063 34.8553 28.1209 34.8553 24.8683C34.8553 21.6157 34.8432 21.2303 34.7845 19.9457C34.7302 18.7574 34.532 18.1128 34.3647 17.6831C34.1432 17.115 33.8808 16.7086 33.4544 16.2822C33.0612 15.878 32.5825 15.567 32.0535 15.3719C31.6238 15.2046 30.9792 15.0064 29.7909 14.9521ZM23.3123 28.6237C24.1813 28.9854 25.1489 29.0342 26.0499 28.7618C26.9508 28.4894 27.7293 27.9126 28.2522 27.13C28.7752 26.3474 29.0102 25.4075 28.9172 24.4708C28.8242 23.5342 28.4088 22.6589 27.7421 21.9944C27.3171 21.5697 26.8033 21.2445 26.2375 21.0422C25.6717 20.8399 25.0681 20.7656 24.4702 20.8245C23.8722 20.8835 23.2948 21.0743 22.7794 21.3833C22.2641 21.6922 21.8236 22.1116 21.4898 22.6111C21.1559 23.1107 20.937 23.6781 20.8488 24.2724C20.7606 24.8668 20.8052 25.4733 20.9795 26.0483C21.1538 26.6233 21.4534 27.1525 21.8568 27.5979C22.2602 28.0432 22.7573 28.3935 23.3123 28.6237ZM20.4407 20.4407C21.0221 19.8592 21.7124 19.398 22.4721 19.0833C23.2318 18.7687 24.046 18.6067 24.8683 18.6067C25.6906 18.6067 26.5048 18.7687 27.2645 19.0833C28.0242 19.398 28.7145 19.8592 29.2959 20.4407C29.8773 21.0221 30.3386 21.7124 30.6532 22.4721C30.9679 23.2318 31.1299 24.046 31.1299 24.8683C31.1299 25.6906 30.9679 26.5048 30.6532 27.2645C30.3386 28.0242 29.8773 28.7145 29.2959 29.2959C28.1216 30.4702 26.529 31.1299 24.8683 31.1299C23.2076 31.1299 21.615 30.4702 20.4407 29.2959C19.2664 28.1216 18.6067 26.529 18.6067 24.8683C18.6067 23.2076 19.2664 21.615 20.4407 20.4407ZM32.5186 19.5392C32.6627 19.4033 32.778 19.2399 32.8578 19.0586C32.9376 18.8773 32.9802 18.6818 32.9831 18.4837C32.986 18.2857 32.9491 18.0891 32.8746 17.9055C32.8002 17.722 32.6896 17.5552 32.5496 17.4152C32.4095 17.2751 32.2428 17.1646 32.0592 17.0901C31.8757 17.0156 31.679 16.9788 31.481 16.9816C31.2829 16.9845 31.0875 17.0271 30.9062 17.1069C30.7249 17.1867 30.5614 17.302 30.4255 17.4461C30.1612 17.7263 30.0165 18.0986 30.0221 18.4837C30.0277 18.8689 30.1832 19.2367 30.4556 19.5091C30.728 19.7815 31.0958 19.937 31.481 19.9427C31.8662 19.9483 32.2384 19.8036 32.5186 19.5392Z" fill="#5B7DF5"/>
</g>
<defs>
<filter id="filter0_i_212_563" x="11.5789" y="11.5789" width="26.5789" height="30.5789" filterUnits="userSpaceOnUse" color-interpolation-filters="sRGB">
<feFlood flood-opacity="0" result="BackgroundImageFix"/>
<feBlend mode="normal" in="SourceGraphic" in2="BackgroundImageFix" result="shape"/>
<feColorMatrix in="SourceAlpha" type="matrix" values="0 0 0 0 0 0 0 0 0 0 0 0 0 0 0 0 0 0 127 0" result="hardAlpha"/>
<feOffset dy="4"/>
<feGaussianBlur stdDeviation="7.5"/>
<feComposite in2="hardAlpha" operator="arithmetic" k2="-1" k3="1"/>
<feColorMatrix type="matrix" values="0 0 0 0 0 0 0 0 0 0 0 0 0 0 0 0 0 0 0.2 0"/>
<feBlend mode="normal" in2="shape" result="effect1_innerShadow_212_563"/>
</filter>
</defs>
</svg>
