<svg width="20" height="20" viewBox="0 0 20 20" fill="none" xmlns="http://www.w3.org/2000/svg">
<path fill-rule="evenodd" clip-rule="evenodd" d="M9.49999 3C7.8032 3 7.64278 5.95544 6.63259 6.99965C5.6224 8.04385 2.48183 6.84993 2.04549 8.70336C1.61006 10.5577 4.43529 11.1869 4.78364 12.7779C5.13381 14.3688 3.40769 16.6041 4.88264 17.7165C6.35759 18.828 7.94529 16.3123 9.49999 16.3123C11.0547 16.3123 12.6424 18.828 14.1173 17.7165C15.5923 16.6041 13.8671 14.3688 14.2164 12.7779C14.5656 11.1869 17.3899 10.5577 16.9545 8.70336C16.5191 6.84993 13.3776 8.04385 12.3683 6.99965C11.3581 5.95544 11.1968 3 9.49999 3Z" fill="#FFC907" stroke="#FFC907" stroke-width="1.2" stroke-linecap="round" stroke-linejoin="round"/>
</svg>
