<svg width="22" height="22" viewBox="0 0 22 22" fill="none" xmlns="http://www.w3.org/2000/svg">
<path d="M20.7212 6.34776L21.3173 6.27957L21.317 6.27721L20.7212 6.34776ZM18.9274 4.49684L19.0059 3.90198L19.0023 3.90153L18.9274 4.49684ZM20.7212 15.9975L21.317 16.0681L21.3173 16.0657L20.7212 15.9975ZM18.9274 17.8484L19.0023 18.4437L19.0052 18.4434L18.9274 17.8484ZM3.07335 17.8484L2.99546 18.4434L2.99843 18.4437L3.07335 17.8484ZM1.27882 15.9975L0.682703 16.0657L0.682981 16.0681L1.27882 15.9975ZM1.27882 6.34776L0.682976 6.27721L0.682705 6.27957L1.27882 6.34776ZM3.07335 4.49684L2.99843 3.90153L2.99512 3.90196L3.07335 4.49684ZM9.33321 14.5483H8.73321V15.6772L9.6689 15.0456L9.33321 14.5483ZM9.33321 7.79794L9.66891 7.30064L8.73321 6.669V7.79794H9.33321ZM14.3333 11.1732L14.669 11.6705L15.4057 11.1733L14.669 10.6759L14.3333 11.1732ZM21.317 6.27721C21.2462 5.6795 20.9404 5.12828 20.5395 4.71483C20.1392 4.30202 19.5991 3.98025 19.0059 3.90199L18.8489 5.09169C19.1192 5.12735 19.4235 5.28767 19.678 5.55016C19.9319 5.81201 20.0911 6.12929 20.1253 6.41832L21.317 6.27721ZM21.3173 16.0657C21.6942 12.7717 21.6942 9.57462 21.3173 6.27957L20.1251 6.41595C20.4916 9.62039 20.4916 12.7259 20.1251 15.9293L21.3173 16.0657ZM19.0052 18.4434C19.5989 18.3657 20.1393 18.0437 20.5396 17.6307C20.9405 17.2171 21.2463 16.6657 21.317 16.0681L20.1253 15.927C20.0911 16.2161 19.9318 16.5336 19.6779 16.7956C19.4234 17.0582 19.1194 17.2182 18.8496 17.2535L19.0052 18.4434ZM2.99843 18.4437C8.31204 19.1125 13.6872 19.1125 19.0023 18.4437L18.8525 17.2531C13.6369 17.9093 8.36236 17.9093 3.14827 17.2531L2.99843 18.4437ZM0.682981 16.0681C0.753751 16.6657 1.05958 17.2171 1.4606 17.6307C1.861 18.0437 2.40156 18.3656 2.99546 18.4434L3.15124 17.2535C2.88088 17.2181 2.57667 17.0579 2.32212 16.7954C2.06819 16.5335 1.90889 16.216 1.87465 15.927L0.682981 16.0681ZM0.682705 6.27957C0.305765 9.57462 0.305764 12.7714 0.682707 16.0657L1.87493 15.9293C1.50836 12.7256 1.50836 9.62039 1.87493 6.41595L0.682705 6.27957ZM2.99512 3.90196C2.40148 3.98003 1.86105 4.3018 1.46064 4.71469C1.05962 5.12821 0.753756 5.67951 0.682981 6.27721L1.87465 6.41832C1.90888 6.12928 2.06815 5.81195 2.32208 5.5501C2.57662 5.28763 2.88095 5.12731 3.15158 5.09172L2.99512 3.90196ZM19.0023 3.90153C13.687 3.23282 8.31204 3.23282 2.99843 3.90154L3.14827 5.09214C8.36236 4.43595 13.6366 4.43595 18.8525 5.09215L19.0023 3.90153ZM9.93321 14.5483V7.79794H8.73321V14.5483H9.93321ZM13.9976 10.6759L8.99753 14.051L9.6689 15.0456L14.669 11.6705L13.9976 10.6759ZM8.99751 8.29524L13.9976 11.6705L14.669 10.6759L9.66891 7.30064L8.99751 8.29524Z" fill="black"/>
</svg>
