<svg width="22" height="22" viewBox="0 0 22 22" fill="none" xmlns="http://www.w3.org/2000/svg">
<path d="M18.633 6.978C18.646 7.153 18.646 7.327 18.646 7.501C18.646 12.826 14.593 18.962 7.186 18.962C4.904 18.962 2.784 18.301 1 17.153C1.324 17.19 1.636 17.203 1.973 17.203C3.856 17.203 5.589 16.567 6.974 15.482C5.203 15.445 3.719 14.285 3.207 12.689C3.456 12.726 3.706 12.751 3.968 12.751C4.329 12.751 4.692 12.701 5.029 12.614C3.182 12.24 1.799 10.619 1.799 8.661V8.611C2.336 8.91 2.959 9.097 3.619 9.122C2.534 8.4 1.823 7.165 1.823 5.768C1.823 5.02 2.022 4.334 2.371 3.736C4.354 6.179 7.335 7.776 10.677 7.951C10.615 7.651 10.577 7.34 10.577 7.028C10.577 4.808 12.373 3 14.605 3C15.765 3 16.812 3.486 17.548 4.272C18.458 4.097 19.33 3.76 20.104 3.299C19.805 4.234 19.168 5.02 18.333 5.519C19.144 5.431 19.93 5.207 20.652 4.895C20.104 5.693 19.419 6.404 18.633 6.978Z" fill="black"/>
</svg>
