<svg width="22" height="22" viewBox="0 0 22 22" fill="none" xmlns="http://www.w3.org/2000/svg">
<path d="M6.168 2.75H15.168V1.25H6.168V2.75ZM2.418 6.5C2.418 4.43864 4.10734 2.75 6.168 2.75V1.25C3.27911 1.25 0.917999 3.61001 0.917999 6.5H2.418ZM2.418 15.5V6.5H0.917999V15.5H2.418ZM6.168 19.25C4.10744 19.25 2.418 17.5606 2.418 15.5H0.917999C0.917999 18.389 3.27901 20.75 6.168 20.75V19.25ZM15.168 19.25H6.168V20.75H15.168V19.25ZM18.918 15.5C18.918 17.5606 17.2286 19.25 15.168 19.25V20.75C18.057 20.75 20.418 18.389 20.418 15.5H18.918ZM18.918 6.5V15.5H20.418V6.5H18.918ZM15.168 2.75C17.2287 2.75 18.918 4.43864 18.918 6.5H20.418C20.418 3.61001 18.0569 1.25 15.168 1.25V2.75ZM6.16792 11C6.16792 13.4846 8.18238 15.4999 10.668 15.4999V13.9999C9.01092 13.9999 7.66792 12.6563 7.66792 11H6.16792ZM10.668 6.49993C8.18244 6.49993 6.16792 8.51444 6.16792 11H7.66792C7.66792 9.34286 9.01086 7.99993 10.668 7.99993V6.49993ZM15.1681 11C15.1681 8.51432 13.1525 6.49993 10.668 6.49993V7.99993C12.3244 7.99993 13.6681 9.34298 13.6681 11H15.1681ZM10.668 15.4999C13.1526 15.4999 15.1681 13.4847 15.1681 11H13.6681C13.6681 12.6562 12.3243 13.9999 10.668 13.9999V15.4999ZM15.5431 6.49992C15.3357 6.49992 15.1681 6.33223 15.1681 6.12492H13.6681C13.6681 7.16007 14.5067 7.99992 15.5431 7.99992V6.49992ZM15.9181 6.12492C15.9181 6.33223 15.7505 6.49992 15.5431 6.49992V7.99992C16.5795 7.99992 17.4181 7.16007 17.4181 6.12492H15.9181ZM15.5431 5.74992C15.7505 5.74992 15.9181 5.91762 15.9181 6.12492H17.4181C17.4181 5.08978 16.5795 4.24992 15.5431 4.24992V5.74992ZM15.1681 6.12492C15.1681 5.91762 15.3357 5.74992 15.5431 5.74992V4.24992C14.5067 4.24992 13.6681 5.08978 13.6681 6.12492H15.1681Z" fill="black"/>
</svg>
