<svg width="38" height="38" viewBox="0 0 38 38" fill="none" xmlns="http://www.w3.org/2000/svg">
<path d="M34.5254 15.899H33.25V15.8333H19V22.1667H27.9482C26.6428 25.8535 23.1349 28.5 19 28.5C13.7536 28.5 9.50001 24.2464 9.50001 19C9.50001 13.7536 13.7536 9.49999 19 9.49999C21.4217 9.49999 23.6249 10.4136 25.3025 11.9059L29.7809 7.42741C26.9531 4.79195 23.1705 3.16666 19 3.16666C10.256 3.16666 3.16667 10.256 3.16667 19C3.16667 27.744 10.256 34.8333 19 34.8333C27.744 34.8333 34.8333 27.744 34.8333 19C34.8333 17.9384 34.7241 16.9021 34.5254 15.899Z" fill="#FFC107"/>
<path d="M4.99225 11.6304L10.1943 15.4454C11.6019 11.9605 15.0108 9.49999 19 9.49999C21.4217 9.49999 23.6249 10.4136 25.3025 11.9059L29.7809 7.42741C26.9531 4.79195 23.1705 3.16666 19 3.16666C12.9184 3.16666 7.64433 6.60011 4.99225 11.6304Z" fill="#FF3D00"/>
<path d="M19 34.8333C23.0897 34.8333 26.8058 33.2682 29.6155 30.723L24.715 26.5762C23.072 27.8258 21.0642 28.5016 19 28.5C14.8817 28.5 11.385 25.874 10.0676 22.2094L4.90437 26.1875C7.52479 31.3152 12.8464 34.8333 19 34.8333Z" fill="#4CAF50"/>
<path d="M34.5254 15.8991H33.25V15.8333H19V22.1667H27.9482C27.3237 23.9213 26.1989 25.4546 24.7127 26.5771L24.715 26.5755L29.6155 30.7222C29.2687 31.0373 34.8333 26.9167 34.8333 19C34.8333 17.9384 34.7241 16.9021 34.5254 15.8991Z" fill="#1976D2"/>
</svg>
