<svg width="433" height="36" viewBox="0 0 433 36" fill="none" xmlns="http://www.w3.org/2000/svg">
<line y1="19.5" x2="174" y2="19.5" stroke="#C2C2C2"/>
<line x1="259" y1="19.5" x2="433" y2="19.5" stroke="#C2C2C2"/>
<path d="M212.022 26.168C210.47 26.168 209.054 25.808 207.774 25.088C206.494 24.352 205.478 23.336 204.726 22.04C203.99 20.728 203.622 19.256 203.622 17.624C203.622 15.992 203.99 14.528 204.726 13.232C205.478 11.92 206.494 10.904 207.774 10.184C209.054 9.448 210.47 9.08 212.022 9.08C213.59 9.08 215.014 9.448 216.294 10.184C217.574 10.904 218.582 11.912 219.318 13.208C220.054 14.504 220.422 15.976 220.422 17.624C220.422 19.272 220.054 20.744 219.318 22.04C218.582 23.336 217.574 24.352 216.294 25.088C215.014 25.808 213.59 26.168 212.022 26.168ZM212.022 24.272C213.19 24.272 214.238 24 215.166 23.456C216.11 22.912 216.846 22.136 217.374 21.128C217.918 20.12 218.19 18.952 218.19 17.624C218.19 16.28 217.918 15.112 217.374 14.12C216.846 13.112 216.118 12.336 215.19 11.792C214.262 11.248 213.206 10.976 212.022 10.976C210.838 10.976 209.782 11.248 208.854 11.792C207.926 12.336 207.19 13.112 206.646 14.12C206.118 15.112 205.854 16.28 205.854 17.624C205.854 18.952 206.118 20.12 206.646 21.128C207.19 22.136 207.926 22.912 208.854 23.456C209.798 24 210.854 24.272 212.022 24.272ZM225.489 14.984C225.873 14.232 226.417 13.648 227.121 13.232C227.841 12.816 228.713 12.608 229.737 12.608V14.864H229.161C226.713 14.864 225.489 16.192 225.489 18.848V26H223.305V12.848H225.489V14.984Z" fill="#C3C3C3"/>
</svg>
