<svg width="210" height="36" viewBox="0 0 210 36" fill="none" xmlns="http://www.w3.org/2000/svg">
<path d="M4 31.5L20.0231 11.4711C24.6086 5.73921 33.4148 6.02117 37.6242 12.0346L45.3884 23.1264C49.7676 29.3822 59.0324 29.3822 63.4116 23.1264L70.5884 12.8736C74.9676 6.61776 84.2324 6.61776 88.6115 12.8736L95.7884 23.1264C100.168 29.3822 109.432 29.3822 113.812 23.1264L120.988 12.8736C125.368 6.61776 134.632 6.61776 139.012 12.8736L146.188 23.1264C150.568 29.3822 159.832 29.3822 164.212 23.1264L171.976 12.0346C176.185 6.02117 184.991 5.73921 189.577 11.4711L205.6 31.5" stroke="#E9F2FF" stroke-width="8" stroke-linecap="round"/>
</svg>
