<svg width="108" height="108" viewBox="0 0 108 108" fill="none" xmlns="http://www.w3.org/2000/svg">
<g filter="url(#filter0_f_432_224)">
<path d="M4 29C4 15.1929 15.1929 4 29 4H79C92.8071 4 104 15.1929 104 29V79C104 92.8071 92.8071 104 79 104H4V29Z" fill="black" fill-opacity="0.5"/>
</g>
<path d="M4 29C4 15.1929 15.1929 4 29 4H79C92.8071 4 104 15.1929 104 29V79C104 92.8071 92.8071 104 79 104H4V29Z" fill="url(#paint0_linear_432_224)"/>
<g style="mix-blend-mode:overlay" opacity="0.3">
<mask id="mask0_432_224" style="mask-type:alpha" maskUnits="userSpaceOnUse" x="4" y="4" width="100" height="100">
<rect x="4" y="4" width="100" height="100" rx="25" fill="url(#paint1_linear_432_224)"/>
</mask>
<g mask="url(#mask0_432_224)">
<path d="M4 4H104V104L51.5 55L4 4Z" fill="url(#paint2_linear_432_224)"/>
</g>
</g>
<path d="M40.9792 38.25C39.4597 38.25 38.0025 38.8536 36.928 39.928C35.8536 41.0025 35.25 42.4597 35.25 43.9792V70.0208C35.25 71.5403 35.8536 72.9975 36.928 74.072C38.0025 75.1464 39.4597 75.75 40.9792 75.75H54.0458C53.4214 74.776 52.925 73.7257 52.5687 72.625H40.9792C39.5417 72.625 38.375 71.4583 38.375 70.0208V43.9792C38.375 42.5417 39.5417 41.375 40.9792 41.375H67.0208C68.4583 41.375 69.625 42.5417 69.625 43.9792V55.5687C70.7257 55.925 71.776 56.4214 72.75 57.0458V43.9792C72.75 42.4597 72.1464 41.0025 71.072 39.928C69.9975 38.8536 68.5403 38.25 67.0208 38.25H40.9792ZM66.4104 54.95C66.4999 54.7134 66.5306 54.4586 66.4997 54.2076C66.4688 53.9565 66.3774 53.7167 66.2333 53.5088C66.0892 53.301 65.8967 53.1313 65.6724 53.0143C65.4481 52.8973 65.1988 52.8367 64.9458 52.8375H54.5208C54.1064 52.8375 53.709 53.0021 53.416 53.2951C53.123 53.5882 52.9583 53.9856 52.9583 54.4C52.9583 54.8144 53.123 55.2118 53.416 55.5049C53.709 55.7979 54.1064 55.9625 54.5208 55.9625H60.2333C62.1846 55.1457 64.3005 54.7989 66.4104 54.95ZM46.1875 49.7125C44.9443 49.7125 43.752 50.2064 42.8729 51.0854C41.9939 51.9645 41.5 53.1568 41.5 54.4C41.5 55.6432 41.9939 56.8355 42.8729 57.7146C43.752 58.5936 44.9443 59.0875 46.1875 59.0875C47.4307 59.0875 48.623 58.5936 49.5021 57.7146C50.3811 56.8355 50.875 55.6432 50.875 54.4C50.875 53.1568 50.3811 51.9645 49.5021 51.0854C48.623 50.2064 47.4307 49.7125 46.1875 49.7125ZM44.625 54.4C44.625 53.9856 44.7896 53.5882 45.0826 53.2951C45.3757 53.0021 45.7731 52.8375 46.1875 52.8375C46.6019 52.8375 46.9993 53.0021 47.2924 53.2951C47.5854 53.5882 47.75 53.9856 47.75 54.4C47.75 54.8144 47.5854 55.2118 47.2924 55.5049C46.9993 55.7979 46.6019 55.9625 46.1875 55.9625C45.7731 55.9625 45.3757 55.7979 45.0826 55.5049C44.7896 55.2118 44.625 54.8144 44.625 54.4ZM41.5 65.8542C41.5 65.2386 41.6212 64.629 41.8568 64.0603C42.0924 63.4916 42.4377 62.9749 42.8729 62.5396C43.3082 62.1043 43.825 61.7591 44.3937 61.5235C44.9624 61.2879 45.5719 61.1667 46.1875 61.1667C46.8031 61.1667 47.4126 61.2879 47.9813 61.5235C48.55 61.7591 49.0668 62.1043 49.5021 62.5396C49.9373 62.9749 50.2826 63.4916 50.5182 64.0603C50.7538 64.629 50.875 65.2386 50.875 65.8542C50.875 67.0974 50.3811 68.2897 49.5021 69.1687C48.623 70.0478 47.4307 70.5417 46.1875 70.5417C44.9443 70.5417 43.752 70.0478 42.8729 69.1687C41.9939 68.2897 41.5 67.0974 41.5 65.8542ZM46.1875 64.2917C45.7731 64.2917 45.3757 64.4563 45.0826 64.7493C44.7896 65.0423 44.625 65.4398 44.625 65.8542C44.625 66.2686 44.7896 66.666 45.0826 66.959C45.3757 67.252 45.7731 67.4167 46.1875 67.4167C46.6019 67.4167 46.9993 67.252 47.2924 66.959C47.5854 66.666 47.75 66.2686 47.75 65.8542C47.75 65.4398 47.5854 65.0423 47.2924 64.7493C46.9993 64.4563 46.6019 64.2917 46.1875 64.2917ZM64.9458 47.625H43.0708C42.6564 47.625 42.259 47.4604 41.966 47.1674C41.673 46.8743 41.5083 46.4769 41.5083 46.0625C41.5083 45.6481 41.673 45.2507 41.966 44.9576C42.259 44.6646 42.6564 44.5 43.0708 44.5H64.9458C65.3602 44.5 65.7577 44.6646 66.0507 44.9576C66.3437 45.2507 66.5083 45.6481 66.5083 46.0625C66.5083 46.4769 66.3437 46.8743 66.0507 47.1674C65.7577 47.4604 65.3602 47.625 64.9458 47.625ZM76.9167 68.4583C76.9167 65.4194 75.7095 62.5049 73.5606 60.3561C71.4117 58.2072 68.4973 57 65.4583 57C62.4194 57 59.5049 58.2072 57.3561 60.3561C55.2072 62.5049 54 65.4194 54 68.4583C54 71.4973 55.2072 74.4117 57.3561 76.5606C59.5049 78.7095 62.4194 79.9167 65.4583 79.9167C68.4973 79.9167 71.4117 78.7095 73.5606 76.5606C75.7095 74.4117 76.9167 71.4973 76.9167 68.4583ZM66.5021 74.7146C66.5021 74.9908 66.3923 75.2558 66.197 75.4512C66.0016 75.6465 65.7367 75.7562 65.4604 75.7562C65.1841 75.7562 64.9192 75.6465 64.7238 75.4512C64.5285 75.2558 64.4187 74.9908 64.4187 74.7146V69.5H59.2C58.9237 69.5 58.6588 69.3903 58.4634 69.1949C58.2681 68.9996 58.1583 68.7346 58.1583 68.4583C58.1583 68.1821 58.2681 67.9171 58.4634 67.7218C58.6588 67.5264 58.9237 67.4167 59.2 67.4167H64.4167V62.2083C64.4167 61.9321 64.5264 61.6671 64.7218 61.4718C64.9171 61.2764 65.1821 61.1667 65.4583 61.1667C65.7346 61.1667 65.9996 61.2764 66.1949 61.4718C66.3903 61.6671 66.5 61.9321 66.5 62.2083V67.4167H71.7146C71.9908 67.4167 72.2558 67.5264 72.4512 67.7218C72.6465 67.9171 72.7562 68.1821 72.7562 68.4583C72.7562 68.7346 72.6465 68.9996 72.4512 69.1949C72.2558 69.3903 71.9908 69.5 71.7146 69.5H66.5021V74.7146Z" fill="white"/>
<defs>
<filter id="filter0_f_432_224" x="0" y="0" width="108" height="108" filterUnits="userSpaceOnUse" color-interpolation-filters="sRGB">
<feFlood flood-opacity="0" result="BackgroundImageFix"/>
<feBlend mode="normal" in="SourceGraphic" in2="BackgroundImageFix" result="shape"/>
<feGaussianBlur stdDeviation="2" result="effect1_foregroundBlur_432_224"/>
</filter>
<linearGradient id="paint0_linear_432_224" x1="54" y1="4" x2="54" y2="104" gradientUnits="userSpaceOnUse">
<stop stop-color="#6786BE"/>
<stop offset="1" stop-color="#728EE5"/>
</linearGradient>
<linearGradient id="paint1_linear_432_224" x1="6.32558" y1="51.3684" x2="100.512" y2="51.3684" gradientUnits="userSpaceOnUse">
<stop stop-color="#07569E"/>
<stop offset="1" stop-color="#0093DD"/>
</linearGradient>
<linearGradient id="paint2_linear_432_224" x1="98" y1="95.5" x2="-9.5" y2="-19" gradientUnits="userSpaceOnUse">
<stop offset="0.116225" stop-color="white" stop-opacity="0"/>
<stop offset="1" stop-color="white"/>
</linearGradient>
</defs>
</svg>
