<svg width="108" height="108" viewBox="0 0 108 108" fill="none" xmlns="http://www.w3.org/2000/svg">
<g filter="url(#filter0_f_432_223)">
<path d="M4 29C4 15.1929 15.1929 4 29 4H79C92.8071 4 104 15.1929 104 29V79C104 92.8071 92.8071 104 79 104H4V29Z" fill="black" fill-opacity="0.5"/>
</g>
<path d="M4 29C4 15.1929 15.1929 4 29 4H79C92.8071 4 104 15.1929 104 29V79C104 92.8071 92.8071 104 79 104H4V29Z" fill="url(#paint0_linear_432_223)"/>
<g style="mix-blend-mode:overlay">
<mask id="mask0_432_223" style="mask-type:alpha" maskUnits="userSpaceOnUse" x="4" y="4" width="100" height="100">
<rect x="4" y="4" width="100" height="100" rx="25" fill="url(#paint1_linear_432_223)"/>
</mask>
<g mask="url(#mask0_432_223)">
<path opacity="0.3" d="M4 4H104V104L51.5 55L4 4Z" fill="url(#paint2_linear_432_223)"/>
</g>
</g>
<path d="M53.8125 61.1645L70.1521 61.1666C71.3953 61.1666 72.5876 61.6604 73.4667 62.5395C74.3457 63.4186 74.8396 64.6109 74.8396 65.8541V67.7395C74.8396 68.8653 74.5963 69.9778 74.1263 71.0008C73.6563 72.0238 72.9708 72.9332 72.1167 73.6666C68.8542 76.4687 64.1875 77.8374 58.1667 77.8374H57.7938C58.0337 77.3523 58.163 76.82 58.1724 76.2789C58.1817 75.7378 58.0709 75.2014 57.8479 74.7083L58.1667 74.7124C63.5 74.7124 67.4542 73.5541 70.0813 71.2978C70.5937 70.8577 71.0049 70.3121 71.2868 69.6983C71.5687 69.0845 71.7146 68.417 71.7146 67.7416V65.8562C71.7146 65.4418 71.55 65.0443 71.2569 64.7513C70.9639 64.4583 70.5665 64.2937 70.1521 64.2937H53.9521C54.0471 63.2498 54.0002 62.1978 53.8125 61.1666V61.1645ZM42.5417 53.8749C44.3226 53.875 46.0667 54.3824 47.5698 55.3376C49.0729 56.2929 50.2728 57.6565 51.0291 59.2689C51.7853 60.8813 52.0667 62.6758 51.8402 64.4423C51.6136 66.2088 50.8886 67.8742 49.75 69.2437L55.6313 75.1062C55.9089 75.385 56.0712 75.7583 56.0856 76.1516C56.1 76.5448 55.9655 76.929 55.7089 77.2274C55.4524 77.5258 55.0927 77.7164 54.7017 77.7611C54.3108 77.8059 53.9173 77.7014 53.6 77.4687L53.4229 77.3187L47.375 71.2853C46.1367 72.0296 44.7431 72.4776 43.303 72.5943C41.8629 72.711 40.4154 72.4933 39.0733 71.9582C37.7313 71.423 36.5311 70.585 35.5664 69.5094C34.6018 68.4338 33.8988 67.1498 33.5123 65.7577C33.1258 64.3655 33.0663 62.9029 33.3385 61.484C33.6106 60.0651 34.207 58.7282 35.0812 57.5779C35.9553 56.4275 37.0835 55.4947 38.3776 54.8524C39.6718 54.2101 41.0969 53.8755 42.5417 53.8749ZM42.5417 56.9999C40.8841 56.9999 39.2944 57.6584 38.1223 58.8305C36.9502 60.0026 36.2917 61.5923 36.2917 63.2499C36.2917 64.9075 36.9502 66.4972 38.1223 67.6693C39.2944 68.8414 40.8841 69.4999 42.5417 69.4999C44.1993 69.4999 45.789 68.8414 46.9611 67.6693C48.1332 66.4972 48.7917 64.9075 48.7917 63.2499C48.7917 61.5923 48.1332 60.0026 46.9611 58.8305C45.789 57.6584 44.1993 56.9999 42.5417 56.9999ZM58.1667 36.177C59.5346 36.177 60.8892 36.4464 62.153 36.9699C63.4168 37.4934 64.5651 38.2607 65.5324 39.228C66.4996 40.1952 67.2669 41.3436 67.7904 42.6074C68.3139 43.8712 68.5833 45.2257 68.5833 46.5937C68.5833 47.9616 68.3139 49.3161 67.7904 50.58C67.2669 51.8438 66.4996 52.9921 65.5324 53.9594C64.5651 54.9266 63.4168 55.6939 62.153 56.2174C60.8892 56.7409 59.5346 57.0103 58.1667 57.0103C55.404 57.0103 52.7545 55.9129 50.801 53.9594C48.8475 52.0059 47.75 49.3563 47.75 46.5937C47.75 43.831 48.8475 41.1815 50.801 39.228C52.7545 37.2745 55.404 36.177 58.1667 36.177ZM58.1667 39.302C57.2091 39.302 56.2609 39.4906 55.3763 39.857C54.4916 40.2235 53.6878 40.7606 53.0107 41.4377C52.3336 42.1148 51.7965 42.9186 51.4301 43.8033C51.0636 44.6879 50.875 45.6361 50.875 46.5937C50.875 47.5512 51.0636 48.4994 51.4301 49.3841C51.7965 50.2687 52.3336 51.0726 53.0107 51.7497C53.6878 52.4268 54.4916 52.9639 55.3763 53.3303C56.2609 53.6967 57.2091 53.8853 58.1667 53.8853C60.1005 53.8853 61.9552 53.1171 63.3227 51.7497C64.6901 50.3822 65.4583 48.5275 65.4583 46.5937C65.4583 44.6598 64.6901 42.8051 63.3227 41.4377C61.9552 40.0702 60.1005 39.302 58.1667 39.302Z" fill="white"/>
<defs>
<filter id="filter0_f_432_223" x="0" y="0" width="108" height="108" filterUnits="userSpaceOnUse" color-interpolation-filters="sRGB">
<feFlood flood-opacity="0" result="BackgroundImageFix"/>
<feBlend mode="normal" in="SourceGraphic" in2="BackgroundImageFix" result="shape"/>
<feGaussianBlur stdDeviation="2" result="effect1_foregroundBlur_432_223"/>
</filter>
<linearGradient id="paint0_linear_432_223" x1="54" y1="4" x2="54" y2="104" gradientUnits="userSpaceOnUse">
<stop stop-color="#6786BE"/>
<stop offset="1" stop-color="#728EE6"/>
</linearGradient>
<linearGradient id="paint1_linear_432_223" x1="6.32558" y1="51.3684" x2="100.512" y2="51.3684" gradientUnits="userSpaceOnUse">
<stop stop-color="#07569E"/>
<stop offset="1" stop-color="#0093DD"/>
</linearGradient>
<linearGradient id="paint2_linear_432_223" x1="98" y1="95.5" x2="-9.5" y2="-19" gradientUnits="userSpaceOnUse">
<stop offset="0.116225" stop-color="white" stop-opacity="0"/>
<stop offset="1" stop-color="white"/>
</linearGradient>
</defs>
</svg>
