<svg width="20" height="20" viewBox="0 0 20 20" fill="none" xmlns="http://www.w3.org/2000/svg">
<g clip-path="url(#clip0_382_890)">
<path d="M19.955 0.857502C20.0004 0.743922 20.0116 0.619497 19.987 0.499651C19.9624 0.379806 19.9032 0.269811 19.8167 0.183303C19.7302 0.0967945 19.6202 0.0375777 19.5003 0.0129933C19.3805 -0.011591 19.256 -0.000461602 19.1425 0.0450017L0.958711 7.31875H0.957461L0.392461 7.54375C0.285448 7.58644 0.192317 7.65787 0.123355 7.75016C0.0543929 7.84246 0.0122831 7.95202 0.00167746 8.06674C-0.00892821 8.18146 0.0123829 8.29688 0.0632569 8.40025C0.114131 8.50362 0.192588 8.59092 0.289961 8.6525L0.802461 8.9775L0.803711 8.98L7.04746 12.9525L11.02 19.1963L11.0225 19.1988L11.3475 19.7113C11.4092 19.8083 11.4966 19.8863 11.5999 19.9369C11.7032 19.9874 11.8184 20.0085 11.9329 19.9978C12.0474 19.987 12.1567 19.9449 12.2488 19.8761C12.3409 19.8072 12.4123 19.7143 12.455 19.6075L19.955 0.857502ZM17.6637 3.22L8.29621 12.5875L8.02746 12.165C7.97822 12.0875 7.91249 12.0217 7.83496 11.9725L7.41246 11.7038L16.78 2.33625L18.2525 1.7475L17.665 3.22H17.6637Z" fill="#FEFEFE"/>
</g>
<defs>
<clipPath id="clip0_382_890">
<rect width="20" height="20" fill="white"/>
</clipPath>
</defs>
</svg>
